<svg width="48" height="42" viewBox="0 0 48 42" fill="none" xmlns="http://www.w3.org/2000/svg">
  <path d="M32.1797 10.9055C32.9202 8.05757 34.8611 2.9679 39.5455 0.86825C40.0291 0.650515 39.7734 -0.0742435 39.2598 0.0596681C34.7663 1.2383 30.8379 5.6952 31.3299 10.8421C31.3405 10.942 31.3862 11.0351 31.459 11.1051C31.5318 11.175 31.627 11.2175 31.7281 11.225C31.8292 11.2325 31.9298 11.2047 32.0123 11.1463C32.0948 11.0879 32.154 11.0027 32.1797 10.9055Z" fill="#59260B" />
  <path d="M32.1745 10.9035C33.1151 7.34099 34.8993 3.75604 38.0593 1.65025C38.5161 1.34651 38.9965 1.07921 39.4959 0.850872C39.9188 0.700604 39.8053 0.0750012 39.3619 0.0842012C39.2304 0.109357 39.1008 0.143514 38.9741 0.186424C35.2551 1.31087 32.1941 4.52987 31.465 8.33869C31.3511 8.94737 31.2993 9.56586 31.3103 10.1848C31.3103 10.3402 31.3195 10.4915 31.3299 10.6489C31.3402 10.8063 31.3299 10.9648 31.4433 11.0813C31.4952 11.1373 31.5613 11.1786 31.6347 11.2007C31.7082 11.2229 31.7862 11.2252 31.8608 11.2073C31.9354 11.1895 32.0039 11.1522 32.059 11.0993C32.1142 11.0464 32.1541 10.9798 32.1745 10.9065V10.9035ZM32.1848 10.9035C32.1157 11.2347 31.6475 11.3461 31.4268 11.0895C31.3113 10.9699 31.3144 10.7982 31.303 10.6448C31.2917 10.4915 31.2773 10.3382 31.2773 10.1797C31.2589 9.5577 31.3039 8.93543 31.4113 8.32233C32.0796 4.46138 35.1943 1.20967 38.9514 0.103624C39.0824 0.072957 39.2825 -0.0118878 39.4217 0.00140111C39.7857 0.0249123 39.9724 0.512515 39.7311 0.771138C39.6732 0.831866 39.6029 0.879619 39.5248 0.911186C39.3959 0.972519 39.2288 1.05021 39.104 1.11563C38.9112 1.21785 38.6771 1.3395 38.4914 1.45501C35.1025 3.48413 33.1625 7.20708 32.1838 10.9035H32.1848Z" fill="#59260B" />
  <path d="M46.3203 22.5456C46.4049 23.6956 46.1656 24.9918 45.3189 26.3841C45.252 26.4934 45.1495 26.5767 45.0282 26.6203C44.907 26.6639 44.7744 26.665 44.6524 26.6236C44.5304 26.5822 44.4264 26.5007 44.3576 26.3926C44.2887 26.2845 44.2593 26.1563 44.2741 26.0293C45.6252 14.5201 29.4312 9.77594 20.208 20.172C20.1439 20.2451 20.1001 20.3335 20.0809 20.4285C20.0618 20.5235 20.0679 20.6218 20.0986 20.7138L20.8928 23.1037C20.9225 23.1938 20.9748 23.2748 21.0448 23.3394C21.1147 23.4039 21.2001 23.4498 21.2928 23.4728C21.3855 23.4958 21.4826 23.4951 21.575 23.4708C21.6673 23.4464 21.752 23.3993 21.821 23.3337L25.7617 19.6363C25.8595 19.5615 25.9793 19.5206 26.1029 19.5198C26.2264 19.519 26.3468 19.5585 26.4455 19.6321C26.5443 19.7057 26.6159 19.8093 26.6494 19.9272C26.6829 20.045 26.6765 20.1706 26.6311 20.2844C25.6452 22.7603 23.9146 27.071 23.0214 29.3015C22.9784 29.4081 22.9034 29.4991 22.8065 29.562C22.7095 29.625 22.5955 29.6569 22.4796 29.6535C22.3638 29.65 22.2519 29.6113 22.159 29.5427C22.066 29.4741 21.9967 29.3788 21.9602 29.2698L17.4852 15.848C17.4495 15.7396 17.3816 15.6444 17.2903 15.575C16.7458 15.1661 14.8151 13.4815 16.0321 10.8186C16.0709 10.7333 16.0874 10.6397 16.0803 10.5463C16.0732 10.453 16.0426 10.3629 15.9913 10.2844C15.94 10.2058 15.8697 10.1412 15.7867 10.0965C15.7038 10.0518 15.6109 10.0284 15.5164 10.0284H3.14868C3.02542 10.0282 2.90548 10.0681 2.80721 10.1418C2.70895 10.2156 2.63777 10.3193 2.60455 10.4369C2.57134 10.5546 2.57792 10.6798 2.62329 10.7934C2.66866 10.907 2.75032 11.0027 2.85578 11.066C5.9209 12.9224 11.8284 17.3833 14.515 25.3874C14.5388 25.4571 14.5482 25.5308 14.5427 25.6042C14.5372 25.6776 14.5169 25.7492 14.483 25.8147C9.59039 35.1834 -5.77028 24.7976 4.98239 19.0874C5.09088 19.03 5.17754 18.9391 5.22927 18.8285C5.281 18.7179 5.295 18.5936 5.26913 18.4744C5.24326 18.3552 5.17894 18.2476 5.0859 18.1679C4.99286 18.0881 4.87616 18.0406 4.75344 18.0325H4.68743C4.52952 18.0225 4.37275 18.0649 4.24189 18.1531C-6.88825 25.6 6.68512 37.3035 15.3401 29.4589C15.4066 29.3976 15.4871 29.353 15.5747 29.3291C15.6623 29.3051 15.7544 29.3025 15.8433 29.3213C15.9322 29.3402 16.0151 29.38 16.0852 29.4374C16.1552 29.4948 16.2102 29.5681 16.2456 29.6511L21.3187 41.6295C21.3628 41.7342 21.4379 41.823 21.5342 41.8843C21.6304 41.9457 21.7431 41.9765 21.8575 41.9729C21.9718 41.9692 22.0823 41.9312 22.1743 41.8638C22.2663 41.7965 22.3355 41.703 22.3727 41.5958L25.2171 33.4466C25.2454 33.3638 25.2929 33.2886 25.3558 33.2272C25.4187 33.1658 25.4952 33.1198 25.5792 33.093C25.6632 33.0662 25.7524 33.0592 25.8396 33.0727C25.9268 33.0862 26.0096 33.1197 26.0814 33.1706C27.4056 34.0906 30.9802 35.995 37.357 35.58H37.4013C40.8573 35.1129 46.1357 33.4405 47.7714 26.9851L47.7837 26.9248C47.9508 25.7452 48.3108 24.3457 47.4063 22.288C47.1474 21.7043 46.2728 21.9169 46.3203 22.5456ZM39.8518 31.8734C39.8264 31.9022 39.798 31.9282 39.7672 31.9511C32.9851 36.9989 27.6088 33.2442 26.3186 32.177C26.2306 32.1041 26.1672 32.0063 26.1367 31.8967C26.1063 31.7871 26.1104 31.6709 26.1484 31.5637L31.1473 17.3731C31.1833 17.2721 31.2476 17.1833 31.3328 17.1172C31.4179 17.0511 31.5203 17.0104 31.6279 17C35.3799 16.6463 37.3002 17.7851 38.9122 18.7082C38.9122 18.7071 47.1124 23.8847 39.8518 31.8734Z" fill="#59260B" />
  <path d="M46.3254 22.5456C46.4286 23.7937 46.0851 25.046 45.4736 26.1326C45.3529 26.3452 45.2312 26.6018 44.9579 26.6488C44.8803 26.6653 44.8001 26.6658 44.7223 26.6502C44.6445 26.6346 44.5708 26.6033 44.5058 26.5582C44.4408 26.5131 44.3858 26.4552 44.3444 26.3881C44.3029 26.3211 44.2758 26.2463 44.2648 26.1684C44.2675 25.9814 44.2803 25.7948 44.303 25.6092C44.6794 21.4058 42.5054 17.7381 38.7235 15.849C32.486 12.7332 24.7324 15.0005 20.2925 20.1004C20.1977 20.1794 20.1307 20.2863 20.1012 20.4056C20.0718 20.5249 20.0813 20.6503 20.1285 20.7638L20.8371 22.8921C20.902 23.1272 21.0021 23.3756 21.261 23.4441C21.5095 23.531 21.7467 23.4022 21.9117 23.2172L22.4594 22.7061L25.7421 19.623C25.842 19.5444 25.9652 19.5002 26.0927 19.4973C26.4836 19.4861 26.8064 19.9062 26.6528 20.2762L26.1227 21.6195L25.0501 24.2936C24.6953 25.1799 23.7857 27.4553 23.4422 28.312C23.3556 28.5164 23.1235 29.1103 23.039 29.3158C22.8183 29.8545 22.0283 29.7697 21.9045 29.2044C20.5545 25.1615 18.8043 19.9144 17.4533 15.8664C17.3852 15.6292 17.1387 15.5249 16.9747 15.3552C16.2528 14.7102 15.7113 13.827 15.6185 12.8549C15.5643 12.2491 15.6544 11.6391 15.8815 11.0742C15.9238 10.9638 15.9785 10.8482 16.0177 10.743C16.0524 10.6345 16.0511 10.5179 16.0139 10.4103C15.9768 10.3026 15.9058 10.2096 15.8114 10.145C15.7151 10.0816 15.601 10.0501 15.4855 10.055H15.1214C14.7708 10.055 9.06647 10.0601 8.57968 10.055C7.66901 10.0642 5.11234 10.0499 4.21818 10.055H3.49624C3.25594 10.0652 2.99708 10.0131 2.81969 10.1695C2.73168 10.2423 2.6692 10.3409 2.64122 10.4511C2.61324 10.5613 2.6212 10.6774 2.66396 10.7828C2.72068 10.974 3.03524 11.1202 3.192 11.2244C3.34876 11.3287 3.65094 11.5147 3.80152 11.618C4.70855 12.2206 5.58103 12.8727 6.41491 13.5715C9.83069 16.45 12.5782 20.1474 14.1674 24.312L14.4181 24.9897L14.5439 25.3281C14.5803 25.417 14.5949 25.5132 14.5865 25.6089C14.578 25.7045 14.5468 25.7967 14.4954 25.878L14.4067 26.0365C13.5466 27.6312 12.0718 28.9345 10.2814 29.3853C7.44315 30.1152 4.24293 29.003 2.3659 26.797C0.105219 24.0288 1.36344 21.2208 4.17692 19.4983C4.33162 19.3961 4.64205 19.2162 4.80397 19.1293C4.86173 19.0956 4.98342 19.0322 5.03293 18.9954C5.08882 18.9543 5.13554 18.9023 5.17015 18.8425C5.20476 18.7826 5.22651 18.7164 5.23404 18.6478C5.24689 18.5375 5.22379 18.426 5.16812 18.3296C5.11245 18.2333 5.02713 18.1571 4.92464 18.1122C4.81789 18.0728 4.70338 18.0585 4.5901 18.0703C4.47682 18.0822 4.36786 18.12 4.2718 18.1807C2.09157 19.623 0.0949074 21.8607 0.0990327 24.588C0.165038 29.2003 5.16288 32.3385 9.50169 31.9736C11.3942 31.8468 13.2196 31.0934 14.6975 29.923C14.8471 29.8106 15.0668 29.6235 15.2132 29.4967C15.2958 29.4127 15.3925 29.3436 15.4989 29.2923C15.6418 29.2349 15.8011 29.2325 15.9457 29.2854C16.0903 29.3383 16.2097 29.4429 16.2806 29.5785C17.5213 32.5287 19.3777 36.9263 20.6226 39.8754L21.1382 41.1021L21.2682 41.4087C21.3066 41.51 21.3525 41.6084 21.4053 41.7031C21.4641 41.7891 21.5479 41.8553 21.6455 41.8929C21.7431 41.9306 21.85 41.9378 21.9519 41.9137C22.0546 41.8884 22.1479 41.8347 22.2209 41.7589C22.294 41.6831 22.3437 41.5882 22.3645 41.4854L23.0245 39.5984C23.4628 38.339 24.3477 35.8243 24.786 34.566C24.8624 34.339 25.0429 33.8381 25.1161 33.6235C25.148 33.5144 25.1905 33.4086 25.2429 33.3076C25.3241 33.1836 25.4488 33.094 25.593 33.0562C25.7371 33.0184 25.8902 33.0352 26.0226 33.1031C28.7701 34.9432 32.1704 35.581 35.4418 35.6076C35.7893 35.6076 36.4277 35.6076 36.7825 35.581C37.2296 35.5723 37.6751 35.5251 38.114 35.44C41.0718 34.9432 43.9926 33.5672 45.8056 31.1302C46.6057 30.0583 47.2083 28.8547 47.5857 27.5749C47.6404 27.3909 47.7146 27.118 47.7611 26.933L47.8116 26.6049C48.0591 25.2392 48.0591 23.988 47.5507 22.6764C47.4671 22.4935 47.4032 22.2267 47.2516 22.0897C46.8916 21.7595 46.2708 22.06 46.3234 22.5456H46.3254ZM46.3151 22.5456C46.2574 22.0498 46.903 21.7442 47.264 22.0805C47.3448 22.1592 47.4056 22.256 47.4413 22.3626L47.5672 22.6693C47.8066 23.2935 47.9495 23.9501 47.991 24.6166C48.0292 25.2831 47.9395 25.9455 47.8353 26.6059L47.7858 26.935C47.7528 27.1201 47.6538 27.392 47.6105 27.579C47.2343 28.8621 46.6324 30.0691 45.8325 31.1446C44.0183 33.5907 41.0883 34.9769 38.1253 35.4788C37.6836 35.5664 37.2349 35.6147 36.7846 35.6229C36.4154 35.6495 35.8223 35.6516 35.4438 35.6516C32.1642 35.6301 28.7536 34.9994 25.9958 33.1553C25.8769 33.0954 25.7399 33.0813 25.6112 33.1156C25.4824 33.15 25.3711 33.2304 25.2986 33.3413C25.211 33.5182 25.1388 33.7707 25.0697 33.9547L24.85 34.5844C24.4117 35.8325 23.5361 38.3666 23.0967 39.6188L22.4398 41.5069C22.4102 41.62 22.3548 41.7249 22.2778 41.8135C22.2156 41.878 22.1398 41.9279 22.0558 41.9599C21.9718 41.9918 21.8818 42.005 21.792 41.9983C21.7023 41.9917 21.6152 41.9654 21.5369 41.9215C21.4587 41.8775 21.3912 41.8169 21.3393 41.744C20.2482 39.2692 18.5042 35.0668 17.4203 32.5368L16.3786 30.0835C16.2982 29.9189 16.2157 29.6296 16.095 29.5049C16.0232 29.4322 15.9312 29.3824 15.8307 29.3618C15.7302 29.3412 15.6258 29.3508 15.5309 29.3894C15.4359 29.4362 15.3494 29.4984 15.2751 29.5734L15.0193 29.7973C14.1598 30.521 13.1836 31.0964 12.1316 31.4993C8.75913 32.8108 4.67609 31.9184 2.13282 29.371C0.339333 27.622 -0.533174 25.0255 0.34449 22.6192C1.0293 20.7086 2.55257 19.2264 4.21508 18.1101C4.32404 18.0413 4.44762 17.9985 4.57611 17.985C4.7046 17.9715 4.8345 17.9878 4.95558 18.0325C5.04561 18.0718 5.1249 18.1318 5.18685 18.2075C5.2488 18.2833 5.29164 18.3726 5.3118 18.468C5.33197 18.5635 5.32888 18.6623 5.3028 18.7563C5.27672 18.8504 5.2284 18.9369 5.16185 19.0087C5.06835 19.0902 4.96429 19.1589 4.85245 19.2131L4.52654 19.391L4.21714 19.5811C3.01461 20.3386 1.87705 21.3762 1.44905 22.7613C0.698237 25.1758 2.60104 27.4697 4.65752 28.5389C8.2115 30.428 12.3502 29.6511 14.3242 26.0028L14.4119 25.8464C14.4582 25.7749 14.4864 25.6935 14.4939 25.6089C14.5015 25.5243 14.4882 25.4392 14.4552 25.3608L14.0808 24.3478C11.981 18.841 7.87322 14.1756 2.83928 11.0997C2.34218 10.8176 2.51751 10.0008 3.12496 9.99367C3.75717 9.98753 5.01952 9.99367 5.67029 9.99367C7.48647 9.99367 12.5049 9.99367 14.3933 9.99367H15.1152C15.2998 9.98434 15.4848 9.99152 15.668 10.0151C15.7454 10.0366 15.8177 10.0732 15.8806 10.1228C15.9435 10.1724 15.9957 10.234 16.0342 10.3039C16.0726 10.3739 16.0966 10.4508 16.1045 10.53C16.1125 10.6093 16.1043 10.6894 16.0806 10.7654C15.2287 12.5605 15.733 14.3432 17.2944 15.5423C17.3984 15.6187 17.4747 15.7262 17.5121 15.849L17.74 16.5339C18.3144 18.2584 19.879 22.9555 20.4751 24.7434C20.7742 25.6419 21.5518 27.9767 21.8426 28.8476C21.8725 28.9284 21.9757 29.2718 22.02 29.3536C22.0553 29.4161 22.1027 29.4711 22.1596 29.5152C22.2165 29.5594 22.2816 29.592 22.3513 29.611C22.4209 29.63 22.4937 29.6351 22.5654 29.626C22.637 29.6169 22.7062 29.5938 22.7688 29.5581C22.9822 29.4456 23.0245 29.1829 23.1235 28.9672L25.0057 24.2772C25.3574 23.3991 26.2763 21.1083 26.6156 20.2599C26.8095 19.7672 26.1835 19.3225 25.7761 19.6527L22.4893 22.7316L21.9416 23.2427C21.7756 23.4319 21.5105 23.5699 21.2548 23.4779C21.1617 23.4487 21.0776 23.3969 21.0098 23.3273C20.9421 23.2577 20.893 23.1724 20.867 23.0792L20.0997 20.7741C20.0511 20.6551 20.0414 20.5241 20.0719 20.3994C20.1025 20.2747 20.1717 20.1626 20.2698 20.079C24.72 14.978 32.4922 12.7107 38.7307 15.8336C41.44 17.1728 43.5646 19.6578 44.1473 22.6345C44.3677 23.7367 44.4126 24.8663 44.2803 25.9823C44.2604 26.1047 44.2772 26.2302 44.3288 26.3432C44.38 26.4378 44.4574 26.5161 44.5518 26.5687C44.6463 26.6214 44.7539 26.6463 44.8621 26.6405C44.9704 26.6347 45.0747 26.5984 45.1629 26.536C45.2511 26.4736 45.3195 26.3875 45.3601 26.288L45.455 26.1264C46.0666 25.0419 46.4049 23.7917 46.3069 22.5487L46.3151 22.5456Z" fill="#59260B" />
  <path d="M39.8559 31.8775C37.1796 33.9772 33.6926 35.1272 30.3171 34.2286C28.8715 33.8538 27.5226 33.1789 26.3599 32.2486C26.2375 32.1654 26.1493 32.0414 26.1114 31.8992C26.0735 31.7569 26.0885 31.6059 26.1536 31.4737L26.2237 31.2754C27.6449 27.2172 29.6787 21.4365 31.103 17.3731C31.2061 17.0665 31.5155 16.9377 31.8249 16.9469C32.0796 16.9233 32.4241 16.9049 32.6747 16.9009C34.7632 16.8313 36.5752 17.3097 38.3759 18.3494L38.7451 18.5589C39.3639 18.9095 39.8971 19.392 40.4015 19.8878C42 21.4743 43.0829 23.6884 42.8571 25.966C42.6508 28.2302 41.3616 30.2338 39.861 31.8888L39.8559 31.8775ZM39.8487 31.8704C41.242 30.3084 42.4445 28.4684 42.7508 26.3677C43.119 23.9583 42.0289 21.6215 40.3231 19.9481C39.8249 19.4626 39.2917 18.9842 38.6884 18.6386L38.3202 18.4342C38.1377 18.332 37.7623 18.1326 37.5746 18.0396C36.4416 17.469 35.2062 17.1255 33.9391 17.0286C33.3772 16.9838 32.8128 16.9763 32.2498 17.0061L31.828 17.0358C31.6927 17.0308 31.558 17.0563 31.434 17.1104C31.3179 17.1722 31.2301 17.2757 31.1886 17.3997L30.0644 20.5747C29.0939 23.3204 27.2272 28.5982 26.2743 31.2938L26.2041 31.4921C26.1432 31.6141 26.1289 31.7538 26.164 31.8854C26.1991 32.017 26.2811 32.1315 26.3949 32.2077C27.5499 33.1361 28.8896 33.8126 30.3264 34.1929C33.6937 35.1129 37.1724 33.9629 39.8487 31.8734V31.8704Z" fill="#59260B" />
</svg>