<svg width="18" height="22" viewBox="0 0 18 22" fill="none" xmlns="http://www.w3.org/2000/svg">
<path fill-rule="evenodd" clip-rule="evenodd" d="M12.9963 4.5689C12.9001 2.04595 10.945 0 8.5 0C5.99234 0 4 2.15222 4 4.76389V7L2.80191 7C1.9436 7 1.22554 7.65141 1.14248 8.50539L0.00782415 20.1721C0.00261111 20.2257 0 20.2795 0 20.3333C0 21.2538 0.746455 22 1.66725 22H16.3326C16.3865 22 16.4403 21.9974 16.494 21.9922C17.4104 21.9031 18.0812 21.0882 17.9921 20.1721L16.8574 8.50539C16.7743 7.65141 16.0563 7 15.198 7L13 7V4.76389L12.9963 4.5689ZM11.2 7V4.76389C11.2 3.08001 9.96879 1.75 8.5 1.75C7.08186 1.75 5.88519 2.98987 5.80435 4.591L5.8 4.76389V7H11.2ZM16 20L14.9168 9H3.08318L2 20H16Z" fill="black"/>
</svg>
