<svg width="18" height="22" viewBox="0 0 18 22" fill="none" xmlns="http://www.w3.org/2000/svg">
<path fill-rule="evenodd" clip-rule="evenodd" d="M8.99991 0.916687C6.46861 0.916687 4.41658 2.96872 4.41658 5.50002C4.41658 8.03133 6.46861 10.0834 8.99991 10.0834C11.5312 10.0834 13.5832 8.03133 13.5832 5.50002C13.5832 2.96872 11.5312 0.916687 8.99991 0.916687ZM9.00007 2.75002C10.5189 2.75002 11.7501 3.98124 11.7501 5.50002C11.7501 7.0188 10.5189 8.25002 9.00007 8.25002C7.48129 8.25002 6.25007 7.0188 6.25007 5.50002C6.25007 3.98124 7.48129 2.75002 9.00007 2.75002ZM17.25 20.1667C17.25 15.6103 13.5563 11.9167 9 11.9167C4.44365 11.9167 0.75 15.6103 0.75 20.1667C0.75 20.673 1.16041 21.0834 1.66667 21.0834C2.17293 21.0834 2.58333 20.673 2.58333 20.1667C2.58333 16.6229 5.45617 13.75 9 13.75C12.5438 13.75 15.4167 16.6229 15.4167 20.1667C15.4167 20.673 15.8271 21.0834 16.3333 21.0834C16.8396 21.0834 17.25 20.673 17.25 20.1667Z" fill="black"/>
</svg>
