<svg width="40" height="40" viewBox="0 0 40 40" fill="none" xmlns="http://www.w3.org/2000/svg">
<path fill-rule="evenodd" clip-rule="evenodd" d="M23.9963 13.5689C23.9001 11.046 21.945 9 19.5 9C16.9923 9 15 11.1522 15 13.7639V16L13.8019 16C12.9436 16 12.2255 16.6514 12.1425 17.5054L11.0078 29.1721C11.0026 29.2257 11 29.2795 11 29.3333C11 30.2538 11.7465 31 12.6673 31H27.3326C27.3865 31 27.4403 30.9974 27.494 30.9922C28.4104 30.9031 29.0812 30.0882 28.9921 29.1721L27.8574 17.5054C27.7743 16.6514 27.0563 16 26.198 16L24 16V13.7639L23.9963 13.5689ZM22.2 16V13.7639C22.2 12.08 20.9688 10.75 19.5 10.75C18.0819 10.75 16.8852 11.9899 16.8044 13.591L16.8 13.7639V16H22.2ZM27 29L25.9168 18H14.0832L13 29H27Z" fill="black"/>
</svg>
