<svg width="40" height="40" viewBox="0 0 40 40" fill="none" xmlns="http://www.w3.org/2000/svg">
<path d="M28 14.3372V13.6C28 13.0399 27.9996 12.7599 27.8906 12.546C27.7948 12.3579 27.6425 12.2049 27.4544 12.109C27.2405 12 26.9597 12 26.3996 12H13.5996C13.0396 12 12.7598 12 12.5459 12.109C12.3577 12.2049 12.2049 12.3579 12.109 12.546C12 12.7599 12 13.0399 12 13.6V14.3372C12 14.5818 12 14.7042 12.0276 14.8193C12.0521 14.9213 12.0926 15.0188 12.1475 15.1083C12.2093 15.2092 12.2957 15.2956 12.4686 15.4685L12.4688 15.4686L17.5315 20.5314C17.7044 20.7043 17.7907 20.7908 17.8525 20.8917C17.9073 20.9812 17.9482 21.0787 17.9727 21.1808C18 21.2947 18 21.4156 18 21.6553V21.6627V26.4111C18 27.2683 18 27.697 18.1805 27.9551C18.3382 28.1805 18.5814 28.3311 18.8535 28.3713C19.1651 28.4173 19.5487 28.2256 20.3154 27.8423L21.1154 27.4423C21.4365 27.2817 21.5968 27.2014 21.7141 27.0817C21.8178 26.9758 21.897 26.8481 21.9453 26.708C22 26.5495 22 26.3701 22 26.0111V21.6627C22 21.4181 22 21.2959 22.0276 21.1808C22.0521 21.0787 22.0926 20.9812 22.1475 20.8917C22.2093 20.7908 22.2957 20.7044 22.4685 20.5316L22.4688 20.5314L27.5315 15.4686C27.7044 15.2957 27.7907 15.2092 27.8525 15.1083C27.9073 15.0188 27.9482 14.9213 27.9727 14.8193C28 14.7053 28 14.5843 28 14.3447V14.3372Z" stroke="black" stroke-width="2" stroke-linecap="round" stroke-linejoin="round"/>
</svg>
