<svg width="40" height="40" viewBox="0 0 40 40" fill="none" xmlns="http://www.w3.org/2000/svg">
<path d="M27.7446 17.1058L27.7447 17.1101L27.7671 19.7523C27.7671 19.7529 27.7671 19.7535 27.7671 19.7541C27.7662 19.9802 27.5869 20.1607 27.3557 20.1607C27.1239 20.1607 26.9443 19.9792 26.9443 19.7523V15.6143C26.9443 14.8627 26.3332 14.2284 25.5666 14.2284C24.8041 14.2284 24.1889 14.8473 24.1889 15.6143V18.5636C24.1889 18.7905 24.0093 18.972 23.7775 18.972C23.5457 18.972 23.3661 18.7905 23.3661 18.5636V14.4256C23.3661 13.674 22.755 13.0397 21.9884 13.0397C21.2259 13.0397 20.6107 13.6586 20.6107 14.4256V17.3862C20.6107 17.613 20.4311 17.7945 20.1993 17.7945C19.9675 17.7945 19.7878 17.613 19.7878 17.3862V8.88591C19.7878 8.13425 19.1768 7.5 18.4102 7.5C17.6476 7.5 17.0325 8.1189 17.0325 8.88591V22.04C17.0325 22.2068 16.9318 22.3572 16.7675 22.4214C16.5924 22.4785 16.4052 22.4244 16.2985 22.3037C16.2984 22.3036 16.2983 22.3035 16.2982 22.3034L12.7769 18.3007L12.766 18.2883L12.7544 18.2768C12.4992 18.0224 12.1455 17.8842 11.7938 17.8842C11.4344 17.8842 11.0796 18.0201 10.822 18.2768C10.4798 18.6178 10.4664 19.0643 10.5305 19.4003C10.5948 19.7371 10.7518 20.0644 10.8995 20.3163C11.9209 22.1145 13.043 23.8197 14.0316 25.32C14.0609 25.3647 14.0902 25.4094 14.1194 25.4539C14.8319 26.5404 15.4976 27.5556 15.9977 28.4144L15.9985 28.4159C16.3285 28.978 17.0062 30.3687 17.3983 31.1732L17.4206 31.2191L17.5575 31.5H17.8701H28.1771H28.5446L28.6543 31.1493C28.9824 30.1007 29.4409 28.5497 29.8179 27.068C30.1889 25.6096 30.5 24.1489 30.5 23.3184V17.1058C30.5 16.3541 29.889 15.7199 29.1223 15.7199C28.3598 15.7199 27.7446 16.3388 27.7446 17.1058Z" fill="white" stroke="#333333"/>
</svg>
