<svg width="40" height="40" viewBox="0 0 40 40" fill="none" xmlns="http://www.w3.org/2000/svg">
<path d="M20 28C19.7722 28 19.5526 27.9188 19.3815 27.7714C18.7351 27.2156 18.1119 26.6932 17.5621 26.2324L17.5593 26.23C15.9474 24.879 14.5554 23.7123 13.5869 22.563C12.5043 21.2782 12 20.0599 12 18.7291C12 17.4361 12.4508 16.2433 13.2693 15.3701C14.0975 14.4866 15.234 14 16.4697 14C17.3933 14 18.2391 14.2872 18.9836 14.8535C19.3594 15.1393 19.6999 15.4892 20 15.8973C20.3002 15.4892 20.6406 15.1393 21.0165 14.8535C21.761 14.2872 22.6068 14 23.5304 14C24.766 14 25.9026 14.4866 26.7308 15.3701C27.5493 16.2433 28 17.4361 28 18.7291C28 20.0599 27.4958 21.2782 26.4132 22.5629C25.4447 23.7123 24.0529 24.8789 22.4412 26.2298C21.8904 26.6913 21.2662 27.2145 20.6184 27.7717C20.4474 27.9188 20.2277 28 20 28Z" fill="black"/>
</svg>
