<svg width="40" height="36" viewBox="0 0 40 36" fill="none" xmlns="http://www.w3.org/2000/svg">
<path d="M8 8.91935C8 8.41187 8.41354 8 8.92308 8H24.9231C25.4326 8 25.8462 8.41187 25.8462 8.91935C25.8462 9.42684 25.4326 9.83871 24.9231 9.83871H8.92308C8.41354 9.83871 8 9.42684 8 8.91935ZM31.0769 16.5806H8.92308C8.41354 16.5806 8 16.9925 8 17.5C8 18.0075 8.41354 18.4194 8.92308 18.4194H31.0769C31.5865 18.4194 32 18.0075 32 17.5C32 16.9925 31.5865 16.5806 31.0769 16.5806ZM20 25.1613H8.92308C8.41354 25.1613 8 25.5732 8 26.0806C8 26.5881 8.41354 27 8.92308 27H20C20.5095 27 20.9231 26.5881 20.9231 26.0806C20.9231 25.5732 20.5095 25.1613 20 25.1613Z" fill="black"/>
</svg>
