<svg width="40" height="40" viewBox="0 0 40 40" fill="none" xmlns="http://www.w3.org/2000/svg">
<path d="M14.5 27H25.5C25.9647 27 26.197 27 26.3902 26.9615C27.1836 26.8037 27.8036 26.1836 27.9614 25.3902C27.9999 25.197 27.9999 24.9647 27.9999 24.5C27.9999 24.0353 27.9999 23.8031 27.9614 23.6099C27.8036 22.8165 27.1836 22.1962 26.3902 22.0384C26.197 22 25.9647 22 25.5 22H14.5C14.0353 22 13.8031 22 13.6099 22.0384C12.8165 22.1962 12.1962 22.8165 12.0384 23.6099C12 23.8031 12 24.0354 12 24.5C12 24.9647 12 25.197 12.0384 25.3902C12.1962 26.1836 12.8165 26.8037 13.6099 26.9615C13.8031 27 14.0353 27 14.5 27Z" stroke="black" stroke-width="2" stroke-linecap="round" stroke-linejoin="round"/>
<path d="M14.5 18H25.5C25.9647 18 26.197 18 26.3902 17.9615C27.1836 17.8037 27.8036 17.1836 27.9614 16.3902C27.9999 16.197 27.9999 15.9647 27.9999 15.5C27.9999 15.0353 27.9999 14.8031 27.9614 14.6099C27.8036 13.8165 27.1836 13.1962 26.3902 13.0384C26.197 13 25.9647 13 25.5 13H14.5C14.0353 13 13.8031 13 13.6099 13.0384C12.8165 13.1962 12.1962 13.8165 12.0384 14.6099C12 14.8031 12 15.0354 12 15.5C12 15.9647 12 16.197 12.0384 16.3902C12.1962 17.1836 12.8165 17.8037 13.6099 17.9615C13.8031 18 14.0353 18 14.5 18Z" stroke="black" stroke-width="2" stroke-linecap="round" stroke-linejoin="round"/>
</svg>
