<svg width="40" height="40" viewBox="0 0 40 40" fill="none" xmlns="http://www.w3.org/2000/svg">
<path d="M23.7071 22.2929C23.3166 21.9024 22.6834 21.9024 22.2929 22.2929C21.9024 22.6834 21.9024 23.3166 22.2929 23.7071L23.7071 22.2929ZM28.2929 29.7071C28.6834 30.0976 29.3166 30.0976 29.7071 29.7071C30.0976 29.3166 30.0976 28.6834 29.7071 28.2929L28.2929 29.7071ZM18 24C14.6863 24 12 21.3137 12 18H10C10 22.4183 13.5817 26 18 26V24ZM12 18C12 14.6863 14.6863 12 18 12V10C13.5817 10 10 13.5817 10 18H12ZM18 12C21.3137 12 24 14.6863 24 18H26C26 13.5817 22.4183 10 18 10V12ZM24 18C24 21.3137 21.3137 24 18 24V26C22.4183 26 26 22.4183 26 18H24ZM22.2929 23.7071L28.2929 29.7071L29.7071 28.2929L23.7071 22.2929L22.2929 23.7071Z" fill="black"/>
</svg>
