<svg width="40" height="40" viewBox="0 0 40 40" fill="none" xmlns="http://www.w3.org/2000/svg">
<path fill-rule="evenodd" clip-rule="evenodd" d="M19.9999 9.91663C17.4686 9.91663 15.4166 11.9687 15.4166 14.5C15.4166 17.0313 17.4686 19.0833 19.9999 19.0833C22.5312 19.0833 24.5832 17.0313 24.5832 14.5C24.5832 11.9687 22.5312 9.91663 19.9999 9.91663ZM20.0001 11.75C21.5189 11.75 22.7501 12.9812 22.7501 14.5C22.7501 16.0187 21.5189 17.25 20.0001 17.25C18.4813 17.25 17.2501 16.0187 17.2501 14.5C17.2501 12.9812 18.4813 11.75 20.0001 11.75ZM28.25 29.1666C28.25 24.6103 24.5563 20.9166 20 20.9166C15.4437 20.9166 11.75 24.6103 11.75 29.1666C11.75 29.6729 12.1604 30.0833 12.6667 30.0833C13.1729 30.0833 13.5833 29.6729 13.5833 29.1666C13.5833 25.6228 16.4562 22.75 20 22.75C23.5438 22.75 26.4167 25.6228 26.4167 29.1666C26.4167 29.6729 26.8271 30.0833 27.3333 30.0833C27.8396 30.0833 28.25 29.6729 28.25 29.1666Z" fill="black"/>
</svg>
