<svg width="40" height="40" viewBox="0 0 40 40" fill="none" xmlns="http://www.w3.org/2000/svg">
<path d="M24.6563 11.108L24.6564 11.1079C24.6564 11.1079 24.6565 11.1079 24.6566 11.1078C24.6572 11.1077 24.6578 11.1076 24.6586 11.1076C24.659 11.1076 24.6595 11.1075 24.66 11.1075C24.6613 11.1075 24.6625 11.1077 24.6634 11.1078C24.6635 11.1079 24.6636 11.1079 24.6636 11.1079L28.9008 15.345L24.655 19.5908L20.4092 15.345L24.6563 11.108ZM22 28V22H28V28H22ZM18 28H12V22H18V28ZM12 18V12H18V18H12Z" stroke="black" stroke-width="2"/>
</svg>
